# AST/ASF file generated using VICON BodyLanguage
# -----------------------------------------------
:version 1.10
:name VICON
:units
  mass 1.0
  length 0.45
  angle deg
:documentation
   .ast/.asf automatically generated from VICON data using
   VICON BodyBuilder and BodyLanguage model FoxedUp or BRILLIANT.MOD
:root
   order TX TY TZ RX RY RZ
   axis XYZ
   position 0 0 0  
   orientation 0 0 0 
:bonedata
  begin
     id 1 
     name lhipjoint
     direction 0.707368 -0.647095 0.284426 
     length 2.60678 
     axis 0 0 0  XYZ
  end
  begin
     id 2 
     name lfemur
     direction 0.34202 -0.939693 0  
     length 6.63812  
     axis 0 0 20  XYZ
    dof rx ry rz
    limits (-160.0 20.0)
           (-70.0 70.0)
           (-60.0 70.0)
  end
  begin
     id 3 
     name ltibia
     direction 0.34202 -0.939693 0   
     length 7.51178   
     axis 0 0 20   XYZ
    dof rx
    limits (-10.0 170.0)
  end
  begin
     id 4 
     name lfoot
     direction 0.121251 -0.333133 0.935051   
     length 1.83716   
     axis -90 7.62852e-016 20   XYZ
    dof rx rz
    limits (-45.0 90.0)
           (-70.0 20.0)
  end
  begin
     id 5 
     name ltoes
     direction 1.53611e-011 -4.21962e-011 1   
     length 0.916133   
     axis -90 7.62852e-016 20   XYZ
    dof rx
    limits (-90.0 20.0)
  end
  begin
     id 6 
     name rhipjoint
     direction -0.692419 -0.660507 0.290321   
     length 2.55385  
     axis 0 0 0  XYZ 
  end
  begin
     id 7 
     name rfemur
     direction -0.34202 -0.939693 0   
     length 7.29079   
     axis 0 0 -20   XYZ
    dof rx ry rz
    limits (-160.0 20.0)
           (-70.0 70.0)
           (-70.0 60.0)
  end
  begin
     id 8 
     name rtibia
     direction -0.34202 -0.939693 0   
     length 7.47143   
     axis 0 0 -20   XYZ
    dof rx
    limits (-10.0 170.0)
 end
 begin
     id 9 
     name rfoot
     direction -0.119907 -0.329441 0.936532   
     length 1.79439  
     axis -90 -7.62852e-016 -20   XYZ
    dof rx rz
    limits (-45.0 90.0)
           (-20.0 70.0)
  end
  begin
     id 10 
     name rtoes
     direction -1.53571e-011 -4.21961e-011 1   
     length 0.896039   
     axis -90 -7.62852e-016 -20   XYZ
    dof rx
    limits (-90.0 20.0)
  end
  begin
     id 11 
     name lowerback
     direction 0.0367721 0.992912 -0.113016   
     length 1.73542   
     axis 0 0 0   XYZ
    dof rx ry rz
    limits (-20.0 45.0)
           (-30.0 30.0)
           (-30.0 30.0)
  end
  begin
     id 12 
     name upperback
     direction -0.000314626 0.990678 0.136227   
     length 1.7514   
     axis 0 0 0   XYZ
    dof rx ry rz
    limits (-20.0 45.0)
           (-30.0 30.0)
           (-30.0 30.0)
  end
  begin
     id 13 
     name thorax
     direction -0.0226159 0.981151 0.191917   
     length 1.71471   
     axis 0 0 0   XYZ
    dof rx ry rz
    limits (-20.0 45.0)
           (-30.0 30.0)
           (-30.0 30.0)
  end
  begin
     id 14 
     name lowerneck
     direction 0.0219333 0.998071 0.0580739   
     length 1.65882   
     axis 0 0 0   XYZ
    dof rx ry rz
    limits (-20.0 45.0)
           (-30.0 30.0)
           (-30.0 30.0)
  end
  begin
     id 15 
     name upperneck
     direction 0.0384529 0.980058 -0.194957   
     length 1.6612   
     axis 0 0 0   XYZ
    dof rx ry rz
    limits (-20.0 45.0)
           (-30.0 30.0)
           (-30.0 30.0)
  end
  begin
     id 16
     name head
     direction 0.00592123 0.997421 -0.0715234  
     length 1.68077  
     axis 0 0 0   XYZ
    dof rx ry rz
    limits (-20.0 45.0)
           (-30.0 30.0)
           (-30.0 30.0)
  end
  begin
     id 17 
     name lclavicle
     direction 0.904803 0.417826 0.0821728  
     length 3.42227  
     axis 0 0 0   XYZ
    dof ry rz
    limits (-20.0 10.0)
           (0.0 20.0)
  end
  begin
     id 18 
     name lhumerus
     direction 1 -4.48965e-011 -2.68786e-027   
     length 5.11878   
     axis -180 -30 -90   XYZ
    dof rx ry rz
    limits (-60.0 90.0)
           (-90.0 90.0)
           (-90.0 90.0)
  end
  begin
     id 19
     name lradius
     direction 1 -4.48965e-011 2.61168e-028   
     length 3.59971   
     axis -180 -30 -90   XYZ
    dof rx
    limits (-10.0 170.0)
  end
  begin
     id 20
     name lwrist
     direction 1 -4.48965e-011 1.58672e-027   
     length 1.79985   
     axis -1.65735e-015 90 90   XYZ
    dof ry
    limits (-180.0 0.0)
 end
  begin
     id 21 
     name lhand
     direction 1 -4.48942e-011 3.17344e-027   
     length 0.62877   
     axis -2.02492e-015 90 90   XYZ
    dof rx rz
    limits (-90.0 90.0)
           (-45.0 45.0)
  end
  begin
     id 22 
     name lfingers
     direction 1 -4.49011e-011 6.34687e-027   
     length 0.506931   
     axis -4.04985e-015 90 90   XYZ
    dof rx
    limits (0.0 90.0)
  end
  begin
     id 23
     name lthumb
     direction 0.707107 -6.34982e-011 0.707107   
     length 0.727854   
     axis -90 45 2.85299e-015   XYZ
    dof rx rz
    limits (-45.0 45.0)
           (-45.0 45.0)
  end
  begin
     id 24 
     name rclavicle
     direction -0.945647 0.32488 0.0143075   
     length 3.52737  
     axis 0 0 0   XYZ 
    dof ry rz
    limits (-10.0 20.0)
           (-20.0 0.0)
  end
  begin
     id 25 
     name rhumerus
     direction -1 -4.48962e-011 1.92182e-027  
     length 5.4902   
     axis -180 30 90   XYZ
    dof rx ry rz
    limits (-90.0 60.0)
           (-90.0 90.0)
           (-90.0 90.0)
  end
  begin
     id 26 
     name rradius
     direction -1 -4.48967e-011 -5.97193e-028   
     length 3.20659   
     axis -180 30 90   XYZ
    dof rx
    limits (-10.0 170.0)
  end
  begin
     id 27 
     name rwrist
     direction -1 -4.48964e-011 1.58672e-027   
     length 1.6033   
     axis -1.65735e-015 -90 -90   XYZ
    dof ry
    limits (-180.0 0.0)
  end
  begin
     id 28
     name rhand
     direction -1 -4.49006e-011 3.17344e-027   
     length 0.691885   
     axis -2.02492e-015 -90 -90   XYZ
    dof rx rz
    limits (-90.0 90.0)
           (-45.0 45.0)
  end
  begin
     id 29
     name rfingers
     direction -1 -4.48908e-011 6.34687e-027   
     length 0.557815   
     axis -4.04985e-015 -90 -90   XYZ
    dof rx
    limits (0.0 90.0)
  end
  begin
     id 30
     name rthumb
     direction -0.707107 -6.34999e-011 0.707107   
     length 0.800915   
     axis -90 -45 -2.85299e-015   XYZ
    dof rx rz
    limits (-45.0 45.0)
           (-45.0 45.0)
  end
:hierarchy
  begin
    root lhipjoint rhipjoint lowerback
    lhipjoint lfemur
    lfemur ltibia
    ltibia lfoot
    lfoot ltoes
    rhipjoint rfemur
    rfemur rtibia
    rtibia rfoot
    rfoot rtoes
    lowerback upperback
    upperback thorax
    thorax lowerneck lclavicle rclavicle
    lowerneck upperneck
    upperneck head
    lclavicle lhumerus
    lhumerus lradius
    lradius lwrist
    lwrist lhand lthumb
    lhand lfingers
    rclavicle rhumerus
    rhumerus rradius
    rradius rwrist
    rwrist rhand rthumb
    rhand rfingers
  end

#!OML:ASF I:\Actors\actors\Patient Classification 1\Patient 1\Session 1\Subject1.ASF
:FULLY-SPECIFIED
:DEGREES
66
root 0.655375 17.4723 9.85585 13.1358 -1.08361 -10.7228
lowerback -2.19928 0.564429 8.0767
upperback -12.1097 1.29274 1.95761
thorax -11.7492 -0.0671767 -2.4629
lowerneck -4.27645 -10.7173 -9.77111
upperneck 16.3332 -15.9458 12.0933
head 7.47066 -7.48578 4.07765
rclavicle 9.14409e-015 -6.36111e-015
rhumerus -47.8854 -20.6923 -70.3399
rradius 25.0263
rwrist 40.559
rhand 8.32131 -30.6781
rfingers 7.12502
rthumb 33.5325 -57.5644
lclavicle 9.14409e-015 -6.36111e-015
lhumerus -50.9891 19.9988 71.1433
lradius 25.4328
lwrist -21.0229
lhand -18.1211 -6.98696
lfingers 7.12502
lthumb 8.15349 22.8357
rfemur -4.81664 27.9976 26.907
rtibia -0.225737
rfoot -10.7659 -26.4969
rtoes 1.95385
lfemur 8.00218 -55.8713 -12.6192
ltibia -5.52568
lfoot -37.631 61.1891
ltoes 18.1339
67
root 0.655403 17.4729 9.85557 13.1486 -1.07178 -10.7371
lowerback -2.16632 0.56031 8.09652
upperback -12.1286 1.29416 1.97076
thorax -11.7924 -0.0695932 -2.45968
lowerneck -4.25204 -10.7075 -9.83541
upperneck 16.3244 -15.9379 12.1522
head 7.4729 -7.48289 4.10879
rclavicle -1.58034e-014 1.59028e-014
rhumerus -47.9024 -20.6838 -70.3195
rradius 25.0433
rwrist 40.5684
rhand 8.25365 -30.612
rfingers 7.12502
rthumb 33.4682 -57.5123
lclavicle -1.58034e-014 1.59028e-014
lhumerus -51.0191 20.0144 71.1132
lradius 25.4368
lwrist -21.1037
lhand -18.0949 -7.10463
lfingers 7.12502
lthumb 8.17875 22.7171
rfemur -4.83537 27.9864 26.9178
rtibia -0.224011
rfoot -10.7299 -26.4883
rtoes 1.90705
lfemur 8.00605 -55.9499 -12.6064
ltibia -5.51027
lfoot -37.9267 61.1686
ltoes 18.3826
68
root 0.655362 17.4732 9.85481 13.1645 -1.05277 -10.775
lowerback -2.16295 0.541603 8.12758
upperback -12.1349 1.27397 2.00408
thorax -11.8055 -0.0810509 -2.43889
lowerneck -4.21374 -10.6488 -9.97562
upperneck 16.303 -15.8844 12.3691
head 7.48278 -7.45244 4.20922
rclavicle 7.55382e-015 -5.60573e-014
rhumerus -47.8834 -20.6323 -70.3302
rradius 25.0531
rwrist 40.5248
rhand 8.2211 -30.5719
rfingers 7.12502
rthumb 33.4372 -57.4788
lclavicle 7.55382e-015 -5.60573e-014
lhumerus -51.0479 20.1158 71.0307
lradius 25.4256
lwrist -21.1912
lhand -17.9847 -7.22946
lfingers 7.12502
lthumb 8.28507 22.5881
rfemur -4.86127 27.9963 26.9505
rtibia -0.205805
rfoot -10.7922 -26.4985
rtoes 2.28467
lfemur 8.01375 -56.0734 -12.5653
ltibia -5.50711
lfoot -38.182 61.2119
ltoes 18.489
69
root 0.655485 17.4732 9.85479 13.1599 -1.04097 -10.7833
lowerback -2.14614 0.524326 8.13306
upperback -12.1434 1.25468 2.02058
thorax -11.8285 -0.0909765 -2.42246
lowerneck -4.16687 -10.5919 -10.1121
upperneck 16.2802 -15.8407 12.6171
head 7.49405 -7.42485 4.31878
rclavicle 3.70733e-014 -4.73108e-014
rhumerus -47.8865 -20.5637 -70.3515
rradius 25.0765
rwrist 40.507
rhand 8.2361 -30.5797
rfingers 7.12502
rthumb 33.4515 -57.4835
lclavicle 3.70733e-014 -4.73108e-014
lhumerus -51.0859 20.1289 70.9991
lradius 25.4685
lwrist -21.1853
lhand -17.8529 -7.26496
lfingers 7.12502
lthumb 8.41231 22.5475
rfemur -4.85524 27.9504 26.9649
rtibia -0.192183
rfoot -10.8408 -26.4508
rtoes 2.38165
lfemur 8.04458 -56.1421 -12.5901
ltibia -5.49896
lfoot -38.2212 61.2746
ltoes 18.4566
70
root 0.650189 17.4772 9.85841 13.2446 -1.14958 -10.4417
lowerback -2.27519 0.577836 7.69081
upperback -12.1635 1.28297 1.88911
thorax -11.76 -0.0386342 -2.32257
lowerneck -4.21457 -10.641 -10.0293
upperneck 16.3053 -15.926 12.6565
head 7.51794 -7.4551 4.30549
rclavicle -1.08338e-014 1.63003e-014
rhumerus -47.9617 -20.7242 -70.3264
rradius 25.1238
rwrist 40.5502
rhand 8.24291 -30.6011
rfingers 7.12502
rthumb 33.458 -57.5036
lclavicle -1.08338e-014 1.63003e-014
lhumerus -50.983 19.9334 71.055
lradius 25.4771
lwrist -21.1316
lhand -17.7881 -7.23644
lfingers 7.12502
lthumb 8.47487 22.5735
rfemur -4.98154 28.1645 26.5001
rtibia -0.187506
rfoot -10.8638 -26.6209
rtoes 2.31998
lfemur 7.91868 -56.3287 -12.9095
ltibia -5.41877
lfoot -38.5993 61.4091
ltoes 18.6465
